<svg xmlns="http://www.w3.org/2000/svg" xmlns:xlink="http://www.w3.org/1999/xlink" width="8" height="5" version="1.1" viewBox="0 0 8 5"><title>dropdown-arrow-white</title><desc>Created with Sketch.</desc><g id="Icons" fill="none" fill-rule="evenodd" stroke="none" stroke-width="1"><g id="dropdown-arrow-white" fill="#FFF"><path id="Imported-Layers" d="M1.6055,-1.3845 C1.5355,-1.3065 1.5005,-1.2115 1.5005,-1.1025 L1.5005,5.6005 C1.5005,5.7105 1.5355,5.8035 1.6055,5.8815 C1.6755,5.9605 1.7665,5.9995 1.8755,5.9995 C1.9695,5.9995 2.0385,5.9745 2.0865,5.9285 L2.1335,5.8815 L5.7895,2.6935 C5.9295,2.5525 5.9995,2.4045 5.9995,2.2495 C5.9995,2.0925 5.9295,1.9445 5.7895,1.8035 L2.1335,-1.3845 L2.0635,-1.4305 L1.8755,-1.5005 C1.7665,-1.5005 1.6755,-1.4615 1.6055,-1.3845 Z" transform="translate(3.750000, 2.249500) rotate(-270.000000) translate(-3.750000, -2.249500)"/></g></g></svg>