<svg xmlns="http://www.w3.org/2000/svg" xmlns:xlink="http://www.w3.org/1999/xlink" width="10" height="12" version="1.1" viewBox="0 0 10 12"><title>garbage-can-bottom</title><desc>Created with Sketch.</desc><g id="Icons" fill="none" fill-rule="evenodd" stroke="none" stroke-width="1"><g id="garbage-can-bottom" fill="#000"><path id="Fill-1" d="M8.391,3.565 L1.664,3.565 C1.445,3.565 1.309,3.592 1.254,3.647 C1.199,3.702 1.181,3.811 1.199,3.975 L1.719,10.593 C1.755,10.775 1.792,10.889 1.828,10.935 C1.864,10.98 1.983,11.003 2.184,11.003 L7.871,11.003 C7.999,11.003 8.094,10.989 8.158,10.962 C8.222,10.935 8.263,10.898 8.281,10.852 C8.299,10.807 8.318,10.721 8.336,10.593 L8.856,3.975 C8.874,3.794 8.856,3.68 8.801,3.634 C8.746,3.588 8.61,3.565 8.391,3.565"/></g></g></svg>