<svg xmlns="http://www.w3.org/2000/svg" xmlns:xlink="http://www.w3.org/1999/xlink" width="10" height="11" version="1.1" viewBox="0 0 10 11"><title>redo</title><desc>Created with Sketch.</desc><g id="Icons" fill="none" fill-rule="evenodd" stroke="none" stroke-width="1"><g id="redo" fill="#FFF"><path id="Imported-Layers" d="M6.585,2.174 L4.292,2.174 L4.292,0 L0,2.888 L4.292,5.775 L4.292,3.674 L6.519,3.674 C6.832,3.738 8.224,4.135 8.224,6.116 C8.224,8.111 6.826,8.542 6.512,8.614 L1.205,8.614 L1.205,10.114 L6.585,10.114 C6.625,10.114 6.666,10.111 6.705,10.104 C7.749,9.934 9.724,8.882 9.724,6.116 C9.724,3.344 7.739,2.33 6.691,2.182 C6.656,2.177 6.62,2.174 6.585,2.174 Z" transform="translate(4.862000, 5.057000) scale(-1, 1) translate(-4.862000, -5.057000)"/></g></g></svg>